<?xml version="1.0" encoding="utf-8"?>
<!-- Generator: Adobe Illustrator 16.0.0, SVG Export Plug-In . SVG Version: 6.00 Build 0)  -->
<!DOCTYPE svg PUBLIC "-//W3C//DTD SVG 1.1//EN" "http://www.w3.org/Graphics/SVG/1.1/DTD/svg11.dtd">
<svg version="1.1" id="Layer_1" xmlns="http://www.w3.org/2000/svg" xmlns:xlink="http://www.w3.org/1999/xlink" x="0px" y="0px"
	 width="100px" height="100px" viewBox="0 0 100 100" enable-background="new 0 0 100 100" xml:space="preserve">
<g>
	<radialGradient id="SVGID_1_" cx="35.9399" cy="36.7383" r="36.8062" gradientUnits="userSpaceOnUse">
		<stop  offset="0" style="stop-color:#5D394C"/>
		<stop  offset="0.4785" style="stop-color:#521334"/>
		<stop  offset="1" style="stop-color:#240013"/>
	</radialGradient>
	<circle fill="url(#SVGID_1_)" cx="48.85" cy="50.441" r="36.806"/>
	<g>
		<g>
			<g>
				<path fill="#ED5EB0" d="M85.656,50.441c-0.001,0.123,0.006,0.054-0.015-0.282l-0.012-0.238L85.656,50.441z"/>
				<path fill="#ED5EB0" d="M85.542,48.188c-0.02-0.394-0.043-0.847-0.03-0.592c0.021,0.427,0.021,0.424,0.046,0.904
					c0.015,0.276,0.021,0.418,0.027,0.529c0.007,0.138,0.021,0.438,0.035,0.701c-0.024-0.49-0.049-0.97-0.079-1.566
					C85.535,48.04,85.541,48.16,85.542,48.188z"/>
				<path fill="#ED5EB0" d="M70.226,20.401l0.164,0.134C70.342,20.496,70.288,20.452,70.226,20.401z"/>
				<path fill="#ED5EB0" d="M51.31,13.458c0.156,0.005,0.222-0.006,0.229-0.02C51.396,13.439,51.276,13.442,51.31,13.458z"/>
				<path fill="#ED5EB0" d="M47.811,13.165c0.076,0.001,0.139,0.003,0.208,0.004C47.939,13.156,47.859,13.15,47.811,13.165z"/>
				<path fill="#ED5EB0" d="M70.226,20.401l-0.422-0.346C69.76,20.05,70.017,20.237,70.226,20.401z"/>
				<path fill="#ED5EB0" d="M85.006,43.705c0.018,0.109,0.031,0.2,0.046,0.291l-0.043-0.273L85.006,43.705z"/>
				<polygon fill="#ED5EB0" points="76.829,26.443 76.939,26.567 77.042,26.659 				"/>
				<path fill="#ED5EB0" d="M80.77,32.074c-0.08-0.134-0.123-0.172-0.16-0.219c0.067,0.104,0.121,0.187,0.185,0.284
					C80.799,32.14,80.791,32.121,80.77,32.074z"/>
				<path fill="#ED5EB0" d="M84.699,42.197l0.049,0.188C84.735,42.335,84.714,42.254,84.699,42.197z"/>
				<path fill="#ED5EB0" d="M73.399,22.905c-0.004-0.012-0.019-0.034-0.035-0.054C73.361,22.856,73.375,22.876,73.399,22.905z"/>
				<path fill="#ED5EB0" d="M85,58.343c0,0.004,0-0.003,0-0.002C85,58.302,85,58.29,85,58.343z"/>
				<polygon fill="#ED5EB0" points="85.656,50.441 85.65,50.552 85.649,50.575 				"/>
				<path fill="#ED5EB0" d="M41.358,14c0.013,0,0.017,0,0.028,0C41.552,14,41.458,14,41.358,14z"/>
				<path fill="#ED5EB0" d="M11.762,58.471c0.074-0.706,0.587,0.997,0.603-0.046C12.283,58.543,11.708,57.618,11.762,58.471z"/>
				<path fill="#ED5EB0" d="M84.979,43.529l-0.044-0.279C84.956,43.377,84.969,43.462,84.979,43.529z"/>
				<path fill="#ED5EB0" d="M12.365,58.425l0.002-0.001l-0.001-0.106C12.366,58.361,12.365,58.387,12.365,58.425z"/>
				<path fill="#ED5EB0" d="M27.597,19.234c0.047,0.014,0.112,0.004,0.179-0.009C27.759,19.208,27.714,19.206,27.597,19.234z"/>
				<path fill="#ED5EB0" d="M37.751,14.785l-0.266,0.067C37.594,14.832,37.678,14.808,37.751,14.785z"/>
				<path fill="#ED5EB0" d="M23.275,23.077c-0.125,0.086-0.185,0.096-0.315,0.256c0.023-0.004,0.042-0.01,0.067-0.021
					C23.059,23.239,23.122,23.162,23.275,23.077z"/>
				<path fill="#ED5EB0" d="M19.207,27.475c0.035-0.014,0.071-0.038,0.107-0.056c0.033-0.051,0.071-0.109,0.104-0.16L19.207,27.475z
					"/>
				<path fill="#ED5EB0" d="M76.823,74.137c0.094-0.089,0.155-0.143,0.204-0.182C76.949,74.008,77.53,73.37,76.823,74.137z"/>
				<path fill="#ED5EB0" d="M85.007,43.701c-0.01-0.062-0.017-0.101-0.027-0.172c0.01,0.067,0.02,0.131,0.029,0.194
					C85.012,43.74,85.013,43.742,85.007,43.701z"/>
				<path fill="#ED5EB0" d="M24.4,24.621l-0.688,0.591C23.916,25.055,24.164,24.841,24.4,24.621z"/>
				<path fill="#ED5EB0" d="M38.885,85.086l0.21,0.035C39.017,85.096,38.944,85.081,38.885,85.086z"/>
				<path fill="#ED5EB0" d="M21.957,27.242c-0.174,0.063-0.328,0.157-0.472,0.27c-0.01,0.04-0.026,0.083-0.02,0.12L21.957,27.242z"
					/>
				<path fill="#ED5EB0" d="M77.029,73.953l-0.002,0.002L77.029,73.953z"/>
				<path fill="#ED5EB0" d="M80.535,68.917c-0.47,0.755-0.2,0.365-0.287,0.532c-0.553,0.908-0.274,0.41-0.476,0.709
					c-0.164,0.278-0.315,0.533-0.457,0.771c-0.151,0.226-0.303,0.425-0.451,0.623c-0.026,0.026-0.086,0.101-0.022,0.008
					c-0.448,0.6-1.204,1.612-1.733,2.32c-0.038,0.035-0.062,0.056-0.079,0.072c0.104-0.085,0.133-0.087,0.125-0.058
					c-0.269,0.294-0.48,0.563-0.602,0.656c0.166-0.181,0.171-0.202,0.243-0.292l-0.274,0.316c-0.283,0.25,0.376-0.43,0.354-0.447
					c-0.544,0.605-1.16,1.329-1.591,1.781c-0.12,0.065,0.979-1.083,0.387-0.497l0.666-0.698c-0.547,0.5,0.402-0.428-0.107,0.025
					c-0.889,0.905-0.917,1.087-1.856,1.937c-0.194,0.207,0.099-0.036-0.097,0.174c-1.306,1.24-1.146,0.846-2.086,1.773
					c-0.242,0.242-0.31,0.372-1.092,0.901l0.217-0.245c-0.996,0.716-0.503,0.497-1.569,1.216c0.166-0.159,0.764-0.589,0.608-0.487
					c-0.707,0.441-0.451,0.382-0.967,0.761c0,0-0.148,0.019-0.15,0.016c-0.554,0.341-1.137,0.7-1.736,1.069
					c-0.601,0.365-1.192,0.785-1.858,1.072c0.061-0.058,0.272-0.187-0.046-0.067c-0.816,0.401-1.696,0.814-2.577,1.198
					c-0.916,0.302-1.827,0.585-2.663,0.837l-0.601,0.313c-0.146,0.051-0.293,0.028-0.135-0.025c-0.674,0.12-0.015,0.068-0.322,0.184
					c-0.376,0.099-0.515,0.063-0.285-0.023c-0.573,0.181-1.395,0.43-2.23,0.659c-0.415,0.13-0.843,0.208-1.248,0.249
					c-0.403,0.051-0.78,0.086-1.099,0.097l0.238-0.068c-0.981,0.08-1.068,0.406-1.991,0.418l0.172-0.048
					c-1.07,0.069-2.2,0.086-3.262,0.138c-0.266,0.008-0.527,0.022-0.783,0.02c-0.255-0.023-0.505-0.046-0.748-0.068
					c-0.483-0.051-0.935-0.114-1.337-0.199c-0.161,0.101-0.688,0.043-1.191-0.005c-0.506-0.023-0.978-0.157-1.068,0.011
					c-1.183-0.362-0.831-0.365-2.493-0.768c-0.446-0.078-0.705,0.068-1.263-0.036l0.03-0.188l-0.788-0.007l-0.336-0.332
					l-0.522-0.092c0.198,0.067,0.409,0.204,0.363,0.249c-0.412-0.065-0.892-0.229-1.263-0.393c-0.365-0.183-0.616-0.385-0.61-0.435
					l-1.88-0.535c0.072-0.063,0.387,0.025,0.647,0.068c-1.048-0.173-0.096-0.276-1.054-0.434c0.1,0.091-0.113,0.094-0.15,0.126
					c-0.404-0.27-1.345-0.805-2.09-1.096l0.205-0.07c-1.296-0.624-2.673-1.42-4.042-2.276c0.447,0.372,0.184,0.543-0.24,0.314
					l-0.021-0.314c-0.349-0.031,0.37,0.344-0.275,0.171c-0.477-0.382-0.161-0.484,0.16-0.342l-0.634-0.374
					c0.01-0.09,0.17-0.018,0.261-0.071c-0.334-0.054-0.84-0.985-1.352-1.021l0.015-0.088c-0.32-0.241-0.597-0.449-0.849-0.639
					c-0.246-0.194-0.451-0.39-0.662-0.564c-0.415-0.355-0.805-0.684-1.289-1.124c-0.184,0.156-0.523-0.231-0.95-0.36
					c-0.596-0.782-1.164-1.715-1.951-2.566c-0.616-0.553-0.314-0.05-0.658-0.246c0.141-0.195-0.563-1.119-0.076-0.735
					c-0.426-0.552-0.699-0.903-1.016-1.281c-0.162-0.188-0.331-0.383-0.533-0.616c-0.184-0.247-0.397-0.533-0.662-0.889
					c0.017,0.218,0.094,0.428-0.032,0.374c-0.2-0.256-0.294-0.685-0.172-0.704l0.064,0.06c-0.66-0.763-1.145-1.822-1.425-2.901
					c-0.162-0.529-0.32-1.042-0.51-1.496c-0.095-0.228-0.197-0.441-0.312-0.636c-0.094-0.203-0.202-0.388-0.328-0.549l0.053,0.073
					l-0.807-1.443c-0.216-0.724,0.33,0.362,0.286-0.213c-0.247-0.379-0.428-0.734-0.57-1.073c-0.108-0.35-0.178-0.683-0.243-1.005
					c-0.129-0.647-0.231-1.255-0.548-1.928c0.183-0.615,0.1-1.597-0.124-2.612c-0.097-0.511-0.219-1.031-0.276-1.523
					c-0.02-0.497-0.002-0.961,0.1-1.343l-0.173,0.098c-0.193-0.379,0.079-0.478,0.105-0.764c-0.136,0.045-0.139,0.43-0.247,0.191
					c-0.267-1.649-0.034-3.369,0.147-5.072c0.122-0.85,0.364-1.685,0.538-2.52l0.275-1.246c0.127-0.405,0.254-0.809,0.38-1.21
					c0.343-1.172-0.706-0.912,0.082-2.32l0.202,0.524c0.153-1.253,0.655-2.442,1.073-3.642c0.544-1.151,1.088-2.29,1.503-3.462
					c-0.011,0.161,0.061,0.205-0.039,0.422c0.432-0.351,0.979-1.639,0.821-1.749c0.214-0.317,0.188,0.01,0.387-0.143
					c0.381-0.367,0.41-1.288,0.769-1.38c0.059-0.017-0.03,0.156-0.066,0.246c0.105-0.336,0.951-1.254,0.552-1.142
					c0.651-0.663,0.936-1.513,1.53-1.979c0.113-0.54,1.149-1.094,0.966-1.468c0.258,0.325,1.279-1.017,1.624-1.509
					c-0.062,0.218,0.456-0.258,0.4,0.016c0.479-0.456,0.878-0.926,0.665-0.995c1.152-0.533,1.684-1.865,2.57-1.85
					c0.367-0.341,0.727-0.675,1.08-1.003c0.387-0.287,0.768-0.568,1.144-0.846c0.382-0.273,0.759-0.543,1.132-0.811l0.563-0.393
					l0.593-0.329c0.055,0.176-0.407,0.364-0.799,0.642c-0.4,0.264-0.784,0.52-0.659,0.656c0.34-0.257,0.638-0.499,0.919-0.729
					c0.292-0.209,0.574-0.393,0.855-0.579c0.564-0.369,1.146-0.712,1.922-1.054c0.41-0.156-0.168,0.239-0.276,0.355
					c0.718-0.478,1.518-0.701,2.258-1.002c0.755-0.261,1.455-0.619,2.175-0.863c0.003,0.027-0.147,0.099-0.289,0.161
					c0.286-0.088,0.682-0.142,0.613-0.26l-0.272,0.111c-0.522-0.063,1.044-0.695,1.078-0.804c-0.403,0.493,1.486-0.297,0.807,0.364
					c0.185-0.076,0.411-0.2,0.349-0.271c0.289-0.052,0.388-0.029,0.122,0.143c1.019-0.356,0.635-0.341,1.594-0.521
					c0.007,0.059-0.183,0.113-0.27,0.198c0.464-0.195,0.94-0.387,1.762-0.472c-0.043,0.042,0.056,0.07-0.186,0.11
					c1.385-0.307,2.379-0.529,3.945-0.544c-0.453,0.251,0.532,0.042,0.616,0.226c0,0,0.208-0.034,0.417-0.05
					c0.208-0.006,0.417-0.013,0.417-0.013l-0.334-0.103c0.732,0.03,1.387-0.073,2.018,0.012l-0.551,0.051l1.379,0.021l-0.775-0.098
					c0.752-0.057-0.067-0.267,0.914-0.172C51.771,13.854,52.716,14,53.081,14h-0.002c0.368,0,0.748,0.046,1.283,0.166
					c0.133,0.07-0.14,0.177-0.053,0.224c0.374-0.067,1.719,0.191,2.187,0.181c-0.155-0.007-0.178,0.072-0.132,0.099l0.313-0.021
					c0.325,0.114,0.372,0.142,0.304,0.187c0.993,0.265-0.276-0.254,0.892,0.118c-0.095-0.016-0.055,0.009-0.251-0.025
					c1.18,0.33,2.323,0.493,3.359,0.961c0.271,0.228-0.937-0.302-0.613-0.074c0.771,0.247,1.573,0.503,2.368,0.758
					c0.795,0.259,1.531,0.647,2.244,0.979l-0.261-0.136c0.257-0.027,1.036,0.55,1.771,0.863c-0.171-0.095-0.259-0.06-0.203-0.05
					c0.91,0.574,1.923,1.074,3.315,1.932l-0.179-0.097c0.497,0.398,1.34,1.005,1.884,1.421c0.181,0.102,0.494,0.339,0.324,0.168
					c0.415,0.33,0.802,0.672,1.171,1.021c0.381,0.334,0.754,0.662,1.124,0.987c0.363,0.329,0.753,0.622,1.076,0.975
					c0.323,0.352,0.639,0.706,0.942,1.065c-0.152-0.166-0.374-0.385-0.253-0.253l1.096,1.17c-0.066-0.11-0.131-0.165-0.343-0.427
					c0.149,0.14,0.463,0.466,0.73,0.761c-0.506-0.518-0.011,0.019,0.159,0.282c-0.026-0.047,0.044,0.033,0.034,0.007
					c0.472,0.696,0.121,0.083,0.786,1.017l-0.046-0.042c0.261,0.338,0.505,0.656,0.784,1.019c0.097,0.166-0.281-0.358-0.314-0.371
					c0.386,0.52,0.823,0.985,1.09,1.513c-0.147-0.233-0.349-0.574-0.531-0.783c0.369,0.521,0.372,0.607,0.631,1.007l-0.024-0.04
					l0.565,0.939l-0.142-0.241c0.231,0.334,0.448,0.687,0.682,1.07c0.117,0.191,0.237,0.39,0.365,0.601
					c0.105,0.213,0.218,0.438,0.346,0.694c-0.482-0.947-0.088-0.151-0.137-0.218c0.118,0.252,0.3,0.636,0.243,0.53
					c0.247,0.501,0.354,0.716,0.704,1.429c0.011,0.03,0.241,0.497,0.182,0.396c0.297,0.602-0.063-0.145-0.034-0.096
					c0.461,0.929,0.859,2.276,1.407,3.662c0.361,1.23,0.399,1.468,0.707,2.621c0.099,0.39-0.087-0.319-0.087-0.319
					c0.147,0.632,0.313,1.096,0.407,1.7c-0.02-0.121-0.001,0.005,0.027,0.19c0.07,0.458,0.053,0.345,0.149,0.963
					c-0.02-0.119-0.045-0.284-0.077-0.484c0.088,0.566,0.177,1.143,0.268,1.729c0.023,0.158-0.056-0.357-0.089-0.565
					c0.101,0.665,0.281,1.722,0.256,1.934l-0.023-0.432c0.013,0.245,0.014,0.125-0.009-0.053c-0.082-0.542-0.116-0.765-0.13-0.856
					l0.064,0.421c-0.105-0.688-0.265-1.722-0.39-2.542l0.057,0.353l-0.136-0.87c-0.037-0.184-0.051-0.311,0.02,0.107
					c-0.111-0.605-0.126-0.53-0.246-1.046c-0.015-0.056-0.008-0.031,0.006,0.021l-0.151-0.583c0.023,0.085,0.012,0.043,0.07,0.261
					c-0.27-1.055-0.407-1.591-0.532-2.083l0.022,0.088c-0.44-1.43-0.034-0.141-0.411-1.2l-0.242-0.716l-0.058-0.136
					c-0.053-0.146-0.157-0.432-0.134-0.38c-0.203-0.539,0.029,0.093-0.09-0.218c-0.13-0.349-0.289-0.838-0.465-1.242
					c-0.191-0.397-0.352-0.73-0.378-0.81c-0.125-0.237,0.302,0.645-0.049-0.069c-0.078-0.213-0.402-0.826-0.687-1.443
					c0.103,0.182,0.374,0.767,0.091,0.148c-0.099-0.18-0.241-0.479-0.39-0.798c-0.153-0.316-0.357-0.629-0.503-0.877
					c-0.016-0.006-0.179-0.271-0.401-0.638c-0.223-0.366-0.504-0.83-0.756-1.244c0.083,0.017-1.025-1.492-1.554-2.217l0.021,0.018
					c-0.146-0.107-0.646-0.892-1.116-1.374c0.032,0.006,0.13,0.083,0.37,0.358c0.012-0.01-0.418-0.476-0.418-0.476
					c-0.109-0.103-0.247-0.245-0.525-0.547l0.13,0.097c-0.574-0.615-1.137-1.262-1.897-2.032c-0.071-0.014,0.566,0.648-0.298-0.102
					c-0.017-0.042-0.024-0.095,0.203,0.101c-0.074-0.064-0.271-0.225-0.411-0.363l0.361,0.284c-0.354-0.345-0.21-0.154-0.499-0.422
					c0.026-0.016-0.201-0.212-0.144-0.191c0.076,0.066,0.246,0.242,0.364,0.334c-0.324-0.305-0.709-0.682-0.824-0.82
					c0.018,0.04-0.027,0.031-0.27-0.186c-0.624-0.57-0.188-0.225-0.538-0.572c-0.155-0.134-0.571-0.477-0.615-0.443
					c-0.197-0.15-0.218-0.196-0.285-0.265c-0.361-0.246-1.629-1.229-1.272-0.881l0.086,0.07c-0.017-0.012-0.036-0.025-0.059-0.041
					c0.004,0.003,0,0,0.004,0.003l-0.004-0.003c-0.294-0.204-0.588-0.418-0.882-0.639c-0.3-0.212-0.622-0.396-0.932-0.6
					c-0.624-0.398-1.244-0.804-1.856-1.162l0.014-0.021c-0.739-0.414-1.693-0.833-2.255-1.06c-0.226-0.109-0.51-0.305-0.4-0.289
					c-0.598-0.252-0.651-0.306-1.517-0.664c0.629,0.18-0.194-0.123,0.64,0.2c-0.779-0.321-0.942-0.437-1.82-0.676
					c0.317,0.033-0.561-0.323-0.944-0.442l0.534,0.266c-0.427-0.147-0.793-0.293-1.167-0.441l0.237-0.033
					c-1.629-0.62-3.063-0.629-4.303-1.129c-0.469,0.018,0.917,0.218,0.492,0.257c-0.78-0.141-1.567-0.473-1.816-0.517
					c-1.073-0.248-1.031,0.006-2.16-0.164c0.142,0.063,0.263,0.211-0.588,0.217c-0.789-0.061-0.961-0.289-0.456-0.302
					c0.191,0.007,0.283,0.031,0.272,0.048c0.259-0.004,0.601-0.006,0.288-0.085l-0.107,0.048c-0.39-0.08-1.49-0.145-1.228-0.222
					c-0.607,0.015-0.261,0.078,0.183,0.135c-1.021-0.126-1.599-0.16-2.656-0.145c0.167,0.028,0.324,0.093,0.156,0.099
					c-1.548-0.016-0.676,0.144-1.72,0.216c-0.601-0.072,0.198-0.241-0.852-0.117c-0.652-0.042-0.153-0.168,0.101-0.229
					c-0.239,0.04-0.472,0.057-0.695,0.065c-0.222,0.028-0.434,0.042-0.635,0.048c-0.401,0.013-0.756-0.001-1.033,0.023l0.5-0.122
					c-0.299,0.072-0.548,0.104-0.803,0.138l0.312,0.098c-0.301,0.017-0.553,0.05-0.556-0.008c-0.292,0.132,0.269,0.196-0.314,0.405
					c-0.404-0.007-1.184,0.229-1.352,0.099c1.247-0.15-0.179-0.181,0.869-0.364c-0.2,0.051-0.449,0.08-0.751,0.102
					c-0.048-0.011,0.033-0.051,0.114-0.069c-1.216,0.09-0.496,0.336-1.707,0.621c0.127-0.146-0.334-0.139-0.527-0.069
					c0.491-0.114,0.28,0.125-0.143,0.319c-0.799,0.104-0.824,0.271-1.23,0.36l0.475-0.073c-0.125,0.145-0.515,0.224-1.018,0.459
					c-0.074-0.072,0.453-0.229,0.254-0.201c-0.511,0.405-1.381,0.258-2.146,0.68c-0.407,0.056-0.121-0.203-0.475-0.139
					c-0.859,0.454-1.041,0.235-1.923,0.772c0.341,0.034,0.366-0.027-0.209,0.429l1.464-0.816l-0.869,0.681
					c0.458-0.204,0.907-0.568,1.207-0.63c-0.423,0.304-0.378,0.271-0.111,0.29c-0.721,0.058-1.161,0.716-1.948,0.897l-0.169-0.4
					c-0.584,0.175-1.061,0.425-1.533,0.766c-0.466,0.354-0.959,0.739-1.658,1.088l0.472-0.188c-0.084,0.262-0.81,0.513-1.203,0.833
					c-0.044-0.153-0.348-0.042-0.586-0.009c0.087,0.081-0.933,0.665-0.859,1.006l-0.686,0.242c-1.069,0.682-0.891,1.184-1.8,1.958
					c0.15-0.378-0.335-0.102,0.185-0.738c-0.303,0.267-0.595,0.486-0.523,0.577c-0.248,0.081-0.682,0.914-1.065,1.043
					c-0.075,0.167,0.007,0.332-0.336,0.623c-0.061,0.009-0.058-0.061-0.058-0.061c0.045,0.049-0.417,0.578-0.013,0.428
					c-0.604,0.265-1.186,0.909-1.74,1.543c-0.277,0.318-0.552,0.631-0.818,0.901c-0.244,0.29-0.489,0.529-0.747,0.671
					c-0.492,0.73-1.084,1.608-1.529,2.268c-0.019-0.073-0.074-0.053,0.02-0.17c-0.72,0.845,0.088,0.863-0.719,1.818
					c-0.589,0.39,0.207-0.648-0.098-0.367c-0.598-0.158-0.752,1.311-1.437,1.895l0.058-0.201c-0.473,0.488-0.486,1.528-0.985,2.455
					c0,0-0.027-0.07-0.083-0.045c-0.073,0.762-0.388,2.093-0.663,3.061c-0.126-0.377,0.035-0.475-0.269-0.38
					c-0.122,0.437,0.426,0.014,0.184,0.879c-0.224,0.231-0.58,0.8-0.84,0.812c-0.024-0.007,0.267-0.815,0.267-0.815
					c-0.506,0.299-0.346,1.057-0.505,1.479l-0.133-0.098c-0.286,1.294,0.086,1.403-0.291,2.756l0.15-0.116
					c0.205,0.819-0.327,0.589-0.174,1.394l-0.422,0.164c0.027,0.523,0.079,1.811,0.072,2.713c-0.269-0.539-0.216-1.607-0.298-2.292
					c-0.08,0.5-0.234,1.708-0.079,1.987c-0.008-0.205-0.064-0.469,0.025-0.661c0.18,0.646,0.33,1.464,0.264,2.457
					c-0.756-0.215-0.356,2.589-0.824,3.335c0.193,0.891,0.189,1.776,0.206,2.706c0.081,0.921,0.139,1.891,0.324,2.923
					c0.467-0.838,0.11,0.601,0.685,0.357c0.111,0.467,0.181,0.639,0.143,0.69l0.017,1.5c-0.082,0.383-0.245-0.414-0.365-0.338
					c0.226,1.047-0.134,0.498-0.107,1.23c0.17-0.198,0.392,0.278,0.469,0.892l0.046-0.909c0.664,1.35-0.091,1.383,0.708,2.711
					l-0.343-0.386c0.188,0.347,0.437,1.019,0.729,1.671c0.262,0.665,0.724,1.24,1.082,1.488c-0.002,0.15-0.067,0.381-0.255,0.093
					c0.394,0.837,0.901,1.739,1.495,2.52c0.594,0.782,1.13,1.524,1.389,2.207l-0.189-0.043c0.223,0.267,0.512,0.378,0.667,0.789
					c-0.06,0.015-0.197-0.032-0.107,0.099c0.151,0.119,0.748,0.589,0.958,0.998l-0.358-0.22c0.474,0.77,0.97,1.263,1.46,1.701
					c0.53,0.407,1.068,0.748,1.603,1.267c-0.277,0.244,0.554,1.407,1.054,1.91l-0.055,0.022c0.77,0.714,1.493,1.248,2.207,1.747
					c0.718,0.495,1.509,0.857,2.313,1.382c0.184,0.253,0.477,0.537,0.833,0.841c0.362,0.297,0.825,0.558,1.292,0.853
					c0.95,0.566,1.953,1.221,2.807,1.672c-0.241-0.176,0.159-0.204,0.48-0.089c0.382,0.249,1.218,0.327,1.033,0.56l-0.144-0.072
					c0.192,0.39,1.054,0.753,1.75,0.965l0.249-0.299c0.796,0.54,1.972,0.963,3.077,1.196c1.113,0.215,2.11,0.403,2.565,0.729
					c0.457,0.048,1.016,0.119,1.477,0.102l-0.053,0.161c1.246,0.187,1.864,0.367,3.423,0.426l-0.329,0.101
					c0.883,0.034,1.144-0.403,1.944-0.377l0.234,0.229c1.522,0.125,3.08,0.087,4.571-0.166c-0.022,0.029-0.063,0.088-0.309,0.112
					c0.725,0.027,2.772-0.261,2.479-0.448c0.039,0.146,1.558-0.232,2.345-0.46l-0.101,0.14c0.641-0.318,0.653-0.358,1.576-0.642
					c0.224-0.046,0.214,0.027-0.087,0.081c0.75-0.146,0.549-0.246,1.456-0.432l-0.316,0.148c0.757-0.204,0.696-0.192,1.077-0.417
					c0.448-0.207,1.396-0.496,1.533-0.464c0.082-0.084,0.46-0.293,0.9-0.434c0.068,0.005-0.082,0.08-0.158,0.118
					c0.628-0.193,1.068-0.402,1.444-0.628c0.383-0.211,0.72-0.395,1.139-0.56c0.028,0.014,0.086-0.001,0.157-0.027
					c-0.934,0.46-1.687,0.828-1.619,0.788c0.029,0.069,0.789-0.297,0.229,0.097c0.584-0.359,1.569-0.975,2.316-1.309
					c0.038-0.012,0.076-0.024,0.107-0.028l-0.071,0.044c0.17-0.079,0.322-0.157,0.456-0.242c0.228-0.134,0.37-0.218,0.586-0.345
					c0.107-0.007,0.832-0.49,1.188-0.71c-0.063-0.035,0.408-0.316-0.056-0.089c0.06-0.031-0.063,0.048-0.298,0.196
					c-0.052,0.035-0.111,0.075-0.148,0.101l0.022-0.021c-0.233,0.146-0.538,0.337-0.883,0.554c0.264-0.205,0.543-0.41,0.956-0.623
					c0.168-0.149,0.348-0.309,0.442-0.393c0.539-0.215,1.493-0.774,1.625-0.854c0.979-0.827,2.423-1.799,2.913-2.457
					c0.261-0.253,0.323-0.264,0.432-0.347c-0.148,0.148-0.333,0.316-0.408,0.403c0.52-0.51,1.573-1.465,1.665-1.619
					c0.68-0.609-0.326,0.401,0.553-0.493l-0.103,0.137c0.852-0.895,1.497-1.667,2.173-2.45c0.62-0.831,1.23-1.708,2.074-2.785
					c-0.115,0.15-0.173,0.225-0.2,0.253c1.742-2.576,3.336-5.503,4.328-8.415c0.285-0.795,0.324-0.903,0.506-1.413l0.071-0.176
					c-0.001,0,0.065-0.218,0.117-0.44c0.055-0.221,0.11-0.442,0.11-0.442c0.161-0.627,0.298-1.157,0.45-1.75
					c0.076-0.297,0.154-0.599,0.237-0.922c0.063-0.333,0.108-0.696,0.171-1.101l-0.033,0.209c0.086-0.563,0.229-1.5,0.266-1.742
					c0.009-0.063,0.028-0.192,0.063-0.418l0.004-0.019c0,0,0.061-0.355,0.101-0.713c0.018-0.36,0.036-0.72,0.036-0.72
					c0.047-0.932,0.005-0.106,0.073-1.457c0.027-0.542,0.063-1.275,0.075-1.498c-0.011,0.217-0.025,0.501-0.032,0.644l0.027-0.555
					c0.005-0.101,0.026-0.527-0.042,0.834l-0.048,0.946l-0.017,0.307l0.041-0.798c-0.024,0.478-0.037,0.729-0.054,1.061
					c-0.007,0.118-0.013,0.236-0.021,0.397l-0.049,0.931c-0.016,0.111,0.047-0.416-0.033,0.205
					c-0.025,0.173-0.006,0.037-0.045,0.301c-0.069,0.45-0.053,0.34-0.131,0.845c-0.012,0.072,0.005-0.039,0.037-0.248
					c-0.072,0.476-0.176,1.149-0.228,1.483c-0.04,0.263-0.099,0.635-0.149,0.961c-0.068,0.328-0.148,0.587-0.141,0.564
					c-0.043,0.169-0.213,0.828-0.316,1.231c0.193-0.771-0.411,1.578-0.368,1.372c-0.111,0.581-0.713,2.002-1.051,2.988
					c0.021-0.061,0.061-0.167,0.09-0.25c-0.203,0.533-0.27,0.708-0.403,1.06c-0.021,0.074-0.419,0.896-0.624,1.344
					c-0.33,0.64,0.174-0.4,0.062-0.204c0.027-0.027-0.538,1.128-0.42,0.914c-0.251,0.489-0.212,0.423-0.352,0.67
					c-0.025,0.096-0.203,0.471-0.443,0.858c-0.431,0.672-0.132,0.162-0.583,0.908C80.135,69.582,80.535,68.917,80.535,68.917z
					 M65.652,82.949l-0.001-0.002c0.161-0.077,0.299-0.144,0.386-0.186C65.958,82.801,65.846,82.855,65.652,82.949z M64.079,83.69
					c0.191-0.09,0.431-0.2,0.684-0.318c0.067-0.003,0.02,0.05-0.141,0.124C64.701,83.439,64.323,83.601,64.079,83.69z
					 M67.586,82.411c-0.232,0.157-0.318,0.196-0.356,0.204c0.109-0.071,0.238-0.155,0.409-0.266l0.022-0.024
					C67.646,82.35,67.626,82.376,67.586,82.411z"/>
				<path fill="#ED5EB0" d="M67.967,82.073c0.034-0.022,0.053-0.035,0.096-0.064c-0.052,0.026-0.101,0.051-0.148,0.075
					c-0.025,0.023-0.051,0.048-0.073,0.069C67.883,82.127,67.928,82.099,67.967,82.073z"/>
				<path fill="#ED5EB0" d="M70.419,20.559l-0.029-0.023c0.021,0.019,0.041,0.037,0.057,0.052
					C70.432,20.572,70.429,20.569,70.419,20.559z"/>
				<polygon fill="#ED5EB0" points="40.748,85.509 40.74,85.552 40.892,85.555 				"/>
				<path fill="#ED5EB0" d="M77.334,27.233c0.015,0.021,0.033,0.05,0.069,0.104C77.395,27.324,77.368,27.285,77.334,27.233z"/>
				<path fill="#ED5EB0" d="M79.768,30.6l0.301,0.504C79.937,30.884,79.842,30.725,79.768,30.6z"/>
				<path fill="#ED5EB0" d="M81.39,33.352c0.016,0.025,0.024,0.039,0.033,0.053l-0.003-0.005L81.39,33.352z"/>
				<path fill="#ED5EB0" d="M38.329,15.912c-0.041,0.014-0.079,0.027-0.115,0.04C37.954,16.07,38.132,15.994,38.329,15.912z"/>
				<path fill="#ED5EB0" d="M53.079,14.085c-0.161-0.003-0.321-0.007-0.485-0.011C52.858,14.122,53.063,14.154,53.079,14.085z"/>
				<polygon fill="#ED5EB0" points="24.476,24.556 24.475,24.551 24.4,24.621 				"/>
				<path fill="#ED5EB0" d="M51.895,14.042c0.267,0.037,0.49,0.04,0.699,0.032C52.376,14.055,52.118,14.032,51.895,14.042z"/>
				<polygon fill="#ED5EB0" points="85.44,46.525 85.464,46.677 85.465,46.696 				"/>
				<path fill="#ED5EB0" d="M85.465,46.696l0.009,0.17C85.47,46.791,85.467,46.734,85.465,46.696z"/>
				<path fill="#ED5EB0" d="M85.492,47.226l-0.019-0.359C85.48,46.985,85.487,47.117,85.492,47.226z"/>
				<path fill="#ED5EB0" d="M84.728,42.352l-0.014-0.046C84.718,42.319,84.722,42.332,84.728,42.352z"/>
				<path fill="#ED5EB0" d="M84.404,41.106c0.075,0.294,0.192,0.747,0.299,1.16l0.011,0.039
					C84.652,42.066,84.487,41.428,84.404,41.106z"/>
				<path fill="#ED5EB0" d="M82.73,36.006c0.021-0.008,0.377,1.011,0.377,1.011c-0.063-0.179-0.143-0.414,0.026,0.047
					C82.675,35.782,83.232,37.326,82.73,36.006z"/>
				<path fill="#ED5EB0" d="M81.293,32.982c0.252,0.522,0.005-0.009,0.021,0.016C81.139,32.675,81.088,32.601,81.293,32.982z"/>
				<path fill="#ED5EB0" d="M63.927,16.684l0.083-0.041C63.603,16.453,63.994,16.667,63.927,16.684z"/>
				<path fill="#ED5EB0" d="M59.464,15.45c0,0,0.401,0.161,0.398,0.171l0.219-0.007c0,0-0.152-0.047-0.305-0.095
					C59.622,15.477,59.464,15.45,59.464,15.45z"/>
				<polygon fill="#ED5EB0" points="56.985,14.111 57.178,14.149 56.443,13.986 				"/>
				<path fill="#ED5EB0" d="M19.68,26.482l0.307,0.075C20.158,26.3,19.953,26.042,19.68,26.482z"/>
				<path fill="#ED5EB0" d="M12.161,42.574c-0.218,0.152-0.392,0.634-0.287,0.97C11.955,43.149,12.135,42.778,12.161,42.574z"/>
				<polygon fill="#ED5EB0" points="35.832,85.733 35.464,85.683 36.129,85.85 				"/>
			</g>
		</g>
	</g>
</g>
<text transform="matrix(0.9043 0 0 1 32.7324 67.3242)" fill="#EA47A4" font-family="'NirmalaUI-Semilight'" font-size="48">Ic</text>
<text transform="matrix(1 0 0 1 51.584 66.3242)" fill="#EA47A4" font-family="'NirmalaUI-Semilight'" font-size="48">I</text>
</svg>
